<mxfile host="app.diagrams.net" agent="Mozilla/5.0 (Windows NT 10.0; Win64; x64) AppleWebKit/537.36 (KHTML, like Gecko) Chrome/126.0.0.0 Whale/3.27.254.15 Safari/537.36" version="24.7.14">
  <diagram id="C5RBs43oDa-KdzZeNtuy" name="Page-1">
    <mxGraphModel dx="5763" dy="757" grid="1" gridSize="10" guides="1" tooltips="1" connect="1" arrows="1" fold="1" page="1" pageScale="1" pageWidth="827" pageHeight="1169" math="0" shadow="0">
      <root>
        <mxCell id="WIyWlLk6GJQsqaUBKTNV-0" />
        <mxCell id="WIyWlLk6GJQsqaUBKTNV-1" parent="WIyWlLk6GJQsqaUBKTNV-0" />
        <mxCell id="gmQWbF-xbGZ5uaHnf1Lp-3" value="" style="rounded=0;whiteSpace=wrap;html=1;fillColor=#948787;" parent="WIyWlLk6GJQsqaUBKTNV-1" vertex="1">
          <mxGeometry x="-2360" y="30" width="1400" height="750" as="geometry" />
        </mxCell>
        <mxCell id="gmQWbF-xbGZ5uaHnf1Lp-4" value="" style="rounded=0;whiteSpace=wrap;html=1;" parent="WIyWlLk6GJQsqaUBKTNV-1" vertex="1">
          <mxGeometry x="-2360" y="552" width="1400" height="60" as="geometry" />
        </mxCell>
        <mxCell id="gmQWbF-xbGZ5uaHnf1Lp-10" value="" style="group" parent="WIyWlLk6GJQsqaUBKTNV-1" vertex="1" connectable="0">
          <mxGeometry x="-2290" y="360" width="190" height="199" as="geometry" />
        </mxCell>
        <mxCell id="gmQWbF-xbGZ5uaHnf1Lp-2" value="" style="rounded=0;whiteSpace=wrap;html=1;" parent="gmQWbF-xbGZ5uaHnf1Lp-10" vertex="1">
          <mxGeometry x="130" width="60" height="199" as="geometry" />
        </mxCell>
        <mxCell id="gmQWbF-xbGZ5uaHnf1Lp-5" value="" style="shape=umlActor;verticalLabelPosition=bottom;verticalAlign=top;html=1;outlineConnect=0;" parent="gmQWbF-xbGZ5uaHnf1Lp-10" vertex="1">
          <mxGeometry y="132" width="30" height="60" as="geometry" />
        </mxCell>
        <mxCell id="gmQWbF-xbGZ5uaHnf1Lp-9" value="" style="group" parent="gmQWbF-xbGZ5uaHnf1Lp-10" vertex="1" connectable="0">
          <mxGeometry x="50" y="104" width="70" height="95" as="geometry" />
        </mxCell>
        <mxCell id="gmQWbF-xbGZ5uaHnf1Lp-8" value="" style="shape=cylinder3;whiteSpace=wrap;html=1;boundedLbl=1;backgroundOutline=1;size=15;" parent="gmQWbF-xbGZ5uaHnf1Lp-9" vertex="1">
          <mxGeometry x="22.5" y="13" width="25" height="82" as="geometry" />
        </mxCell>
        <mxCell id="gmQWbF-xbGZ5uaHnf1Lp-6" value="" style="triangle;whiteSpace=wrap;html=1;rotation=-90;" parent="gmQWbF-xbGZ5uaHnf1Lp-9" vertex="1">
          <mxGeometry x="13.75" y="-13.75" width="42.5" height="70" as="geometry" />
        </mxCell>
        <mxCell id="gmQWbF-xbGZ5uaHnf1Lp-11" value="" style="group" parent="WIyWlLk6GJQsqaUBKTNV-1" vertex="1" connectable="0">
          <mxGeometry x="-1950" y="360" width="190" height="199" as="geometry" />
        </mxCell>
        <mxCell id="gmQWbF-xbGZ5uaHnf1Lp-14" value="" style="group" parent="gmQWbF-xbGZ5uaHnf1Lp-11" vertex="1" connectable="0">
          <mxGeometry x="50" y="104" width="70" height="95" as="geometry" />
        </mxCell>
        <mxCell id="gmQWbF-xbGZ5uaHnf1Lp-15" value="" style="shape=cylinder3;whiteSpace=wrap;html=1;boundedLbl=1;backgroundOutline=1;size=15;" parent="gmQWbF-xbGZ5uaHnf1Lp-14" vertex="1">
          <mxGeometry x="22.5" y="13" width="25" height="82" as="geometry" />
        </mxCell>
        <mxCell id="gmQWbF-xbGZ5uaHnf1Lp-16" value="" style="triangle;whiteSpace=wrap;html=1;rotation=-125;" parent="gmQWbF-xbGZ5uaHnf1Lp-14" vertex="1">
          <mxGeometry x="13.75" y="-13.75" width="42.5" height="70" as="geometry" />
        </mxCell>
        <mxCell id="gmQWbF-xbGZ5uaHnf1Lp-13" value="" style="shape=umlActor;verticalLabelPosition=bottom;verticalAlign=top;html=1;outlineConnect=0;" parent="gmQWbF-xbGZ5uaHnf1Lp-14" vertex="1">
          <mxGeometry x="22.5" y="28" width="30" height="60" as="geometry" />
        </mxCell>
        <mxCell id="gmQWbF-xbGZ5uaHnf1Lp-12" value="" style="rounded=0;whiteSpace=wrap;html=1;" parent="WIyWlLk6GJQsqaUBKTNV-1" vertex="1">
          <mxGeometry x="-1820" y="250" width="60" height="199" as="geometry" />
        </mxCell>
        <mxCell id="gmQWbF-xbGZ5uaHnf1Lp-17" value="" style="group" parent="WIyWlLk6GJQsqaUBKTNV-1" vertex="1" connectable="0">
          <mxGeometry x="-1500" y="360" width="200" height="199" as="geometry" />
        </mxCell>
        <mxCell id="gmQWbF-xbGZ5uaHnf1Lp-19" value="" style="shape=umlActor;verticalLabelPosition=bottom;verticalAlign=top;html=1;outlineConnect=0;" parent="gmQWbF-xbGZ5uaHnf1Lp-17" vertex="1">
          <mxGeometry x="161" y="132" width="30" height="60" as="geometry" />
        </mxCell>
        <mxCell id="gmQWbF-xbGZ5uaHnf1Lp-20" value="" style="group" parent="gmQWbF-xbGZ5uaHnf1Lp-17" vertex="1" connectable="0">
          <mxGeometry x="50" y="104" width="70" height="95" as="geometry" />
        </mxCell>
        <mxCell id="gmQWbF-xbGZ5uaHnf1Lp-21" value="" style="shape=cylinder3;whiteSpace=wrap;html=1;boundedLbl=1;backgroundOutline=1;size=15;" parent="gmQWbF-xbGZ5uaHnf1Lp-20" vertex="1">
          <mxGeometry x="22.5" y="13" width="25" height="82" as="geometry" />
        </mxCell>
        <mxCell id="gmQWbF-xbGZ5uaHnf1Lp-22" value="" style="triangle;whiteSpace=wrap;html=1;rotation=-110;" parent="gmQWbF-xbGZ5uaHnf1Lp-20" vertex="1">
          <mxGeometry x="13.75" y="-13.75" width="42.5" height="70" as="geometry" />
        </mxCell>
        <mxCell id="gmQWbF-xbGZ5uaHnf1Lp-18" value="" style="rounded=0;whiteSpace=wrap;html=1;" parent="WIyWlLk6GJQsqaUBKTNV-1" vertex="1">
          <mxGeometry x="-1220" y="540.5" width="240" height="69.5" as="geometry" />
        </mxCell>
        <mxCell id="gmQWbF-xbGZ5uaHnf1Lp-32" value="&lt;ol&gt;&lt;li&gt;상호작용 상태 진입&lt;/li&gt;&lt;li&gt;진입 후 오브젝트 조작&lt;/li&gt;&lt;/ol&gt;" style="text;strokeColor=none;fillColor=none;html=1;whiteSpace=wrap;verticalAlign=middle;overflow=hidden;" parent="WIyWlLk6GJQsqaUBKTNV-1" vertex="1">
          <mxGeometry x="-1940" y="600" width="170" height="80" as="geometry" />
        </mxCell>
        <mxCell id="gmQWbF-xbGZ5uaHnf1Lp-33" value="&lt;ul&gt;&lt;li&gt;상호작용 가능 상태에 진입할 범위&lt;/li&gt;&lt;li&gt;상호작용 상태에 진입이 가능한 상태인가?&lt;/li&gt;&lt;/ul&gt;" style="text;strokeColor=none;fillColor=none;html=1;whiteSpace=wrap;verticalAlign=middle;overflow=hidden;" parent="WIyWlLk6GJQsqaUBKTNV-1" vertex="1">
          <mxGeometry x="-2360" y="690" width="300" height="80" as="geometry" />
        </mxCell>
        <mxCell id="gmQWbF-xbGZ5uaHnf1Lp-34" value="&lt;ul&gt;&lt;li&gt;상호작용 후&lt;br&gt;오브젝트의 상태가 유지되는가?&lt;br&gt;or&lt;br&gt;원래 상태로 돌아가는가?&lt;/li&gt;&lt;/ul&gt;" style="text;strokeColor=none;fillColor=none;html=1;whiteSpace=wrap;verticalAlign=middle;overflow=hidden;" parent="WIyWlLk6GJQsqaUBKTNV-1" vertex="1">
          <mxGeometry x="-1490" y="690" width="300" height="80" as="geometry" />
        </mxCell>
        <mxCell id="gmQWbF-xbGZ5uaHnf1Lp-62" style="edgeStyle=orthogonalEdgeStyle;rounded=0;orthogonalLoop=1;jettySize=auto;html=1;" parent="WIyWlLk6GJQsqaUBKTNV-1" source="gmQWbF-xbGZ5uaHnf1Lp-37" target="gmQWbF-xbGZ5uaHnf1Lp-39" edge="1">
          <mxGeometry relative="1" as="geometry" />
        </mxCell>
        <mxCell id="gmQWbF-xbGZ5uaHnf1Lp-37" value="상호작용" style="rounded=1;whiteSpace=wrap;html=1;arcSize=50;" parent="WIyWlLk6GJQsqaUBKTNV-1" vertex="1">
          <mxGeometry x="-3540" y="330" width="130" height="62" as="geometry" />
        </mxCell>
        <mxCell id="gmQWbF-xbGZ5uaHnf1Lp-59" value="yes" style="edgeStyle=orthogonalEdgeStyle;rounded=0;orthogonalLoop=1;jettySize=auto;html=1;entryX=0.5;entryY=0;entryDx=0;entryDy=0;" parent="WIyWlLk6GJQsqaUBKTNV-1" source="gmQWbF-xbGZ5uaHnf1Lp-38" target="gmQWbF-xbGZ5uaHnf1Lp-42" edge="1">
          <mxGeometry relative="1" as="geometry" />
        </mxCell>
        <mxCell id="gmQWbF-xbGZ5uaHnf1Lp-60" value="no" style="edgeStyle=orthogonalEdgeStyle;rounded=0;orthogonalLoop=1;jettySize=auto;html=1;" parent="WIyWlLk6GJQsqaUBKTNV-1" source="gmQWbF-xbGZ5uaHnf1Lp-38" target="gmQWbF-xbGZ5uaHnf1Lp-40" edge="1">
          <mxGeometry relative="1" as="geometry" />
        </mxCell>
        <mxCell id="gmQWbF-xbGZ5uaHnf1Lp-38" value="상호작용이 가능한&lt;br&gt;상태인가?" style="rhombus;whiteSpace=wrap;html=1;" parent="WIyWlLk6GJQsqaUBKTNV-1" vertex="1">
          <mxGeometry x="-3560" y="492.5" width="170" height="92" as="geometry" />
        </mxCell>
        <mxCell id="gmQWbF-xbGZ5uaHnf1Lp-61" style="edgeStyle=orthogonalEdgeStyle;rounded=0;orthogonalLoop=1;jettySize=auto;html=1;entryX=0.5;entryY=0;entryDx=0;entryDy=0;" parent="WIyWlLk6GJQsqaUBKTNV-1" source="gmQWbF-xbGZ5uaHnf1Lp-39" target="gmQWbF-xbGZ5uaHnf1Lp-38" edge="1">
          <mxGeometry relative="1" as="geometry" />
        </mxCell>
        <mxCell id="gmQWbF-xbGZ5uaHnf1Lp-39" value="플레이어의 상태" style="rounded=0;whiteSpace=wrap;html=1;" parent="WIyWlLk6GJQsqaUBKTNV-1" vertex="1">
          <mxGeometry x="-3535" y="410" width="120" height="60" as="geometry" />
        </mxCell>
        <mxCell id="gmQWbF-xbGZ5uaHnf1Lp-40" value="상호작용 비활성화" style="rounded=0;whiteSpace=wrap;html=1;" parent="WIyWlLk6GJQsqaUBKTNV-1" vertex="1">
          <mxGeometry x="-3360" y="508.5" width="120" height="60" as="geometry" />
        </mxCell>
        <mxCell id="gmQWbF-xbGZ5uaHnf1Lp-56" value="yes" style="edgeStyle=orthogonalEdgeStyle;rounded=0;orthogonalLoop=1;jettySize=auto;html=1;entryX=0.5;entryY=0;entryDx=0;entryDy=0;" parent="WIyWlLk6GJQsqaUBKTNV-1" source="gmQWbF-xbGZ5uaHnf1Lp-41" target="gmQWbF-xbGZ5uaHnf1Lp-45" edge="1">
          <mxGeometry relative="1" as="geometry" />
        </mxCell>
        <mxCell id="gmQWbF-xbGZ5uaHnf1Lp-41" value="상호작용 상태 진입" style="rounded=0;whiteSpace=wrap;html=1;" parent="WIyWlLk6GJQsqaUBKTNV-1" vertex="1">
          <mxGeometry x="-3542.5" y="730" width="135" height="60" as="geometry" />
        </mxCell>
        <mxCell id="gmQWbF-xbGZ5uaHnf1Lp-57" value="yes" style="edgeStyle=orthogonalEdgeStyle;rounded=0;orthogonalLoop=1;jettySize=auto;html=1;" parent="WIyWlLk6GJQsqaUBKTNV-1" source="gmQWbF-xbGZ5uaHnf1Lp-42" target="gmQWbF-xbGZ5uaHnf1Lp-41" edge="1">
          <mxGeometry relative="1" as="geometry" />
        </mxCell>
        <mxCell id="gmQWbF-xbGZ5uaHnf1Lp-58" value="no" style="edgeStyle=orthogonalEdgeStyle;rounded=0;orthogonalLoop=1;jettySize=auto;html=1;" parent="WIyWlLk6GJQsqaUBKTNV-1" source="gmQWbF-xbGZ5uaHnf1Lp-42" target="gmQWbF-xbGZ5uaHnf1Lp-43" edge="1">
          <mxGeometry relative="1" as="geometry" />
        </mxCell>
        <mxCell id="gmQWbF-xbGZ5uaHnf1Lp-42" value="상태 진입이&lt;br&gt;필요한 작업인가?" style="rhombus;whiteSpace=wrap;html=1;" parent="WIyWlLk6GJQsqaUBKTNV-1" vertex="1">
          <mxGeometry x="-3560" y="600" width="170" height="92" as="geometry" />
        </mxCell>
        <mxCell id="gmQWbF-xbGZ5uaHnf1Lp-43" value="오브젝트의 상호작용&lt;br&gt;활성화" style="rounded=0;whiteSpace=wrap;html=1;" parent="WIyWlLk6GJQsqaUBKTNV-1" vertex="1">
          <mxGeometry x="-3350" y="616" width="135" height="60" as="geometry" />
        </mxCell>
        <mxCell id="gmQWbF-xbGZ5uaHnf1Lp-54" value="yes" style="edgeStyle=orthogonalEdgeStyle;rounded=0;orthogonalLoop=1;jettySize=auto;html=1;" parent="WIyWlLk6GJQsqaUBKTNV-1" source="gmQWbF-xbGZ5uaHnf1Lp-45" target="gmQWbF-xbGZ5uaHnf1Lp-49" edge="1">
          <mxGeometry relative="1" as="geometry" />
        </mxCell>
        <mxCell id="gmQWbF-xbGZ5uaHnf1Lp-55" value="no" style="edgeStyle=orthogonalEdgeStyle;rounded=0;orthogonalLoop=1;jettySize=auto;html=1;entryX=0;entryY=0.5;entryDx=0;entryDy=0;" parent="WIyWlLk6GJQsqaUBKTNV-1" source="gmQWbF-xbGZ5uaHnf1Lp-45" target="gmQWbF-xbGZ5uaHnf1Lp-46" edge="1">
          <mxGeometry relative="1" as="geometry" />
        </mxCell>
        <mxCell id="gmQWbF-xbGZ5uaHnf1Lp-45" value="상호작용 키를&lt;br&gt;눌렀는가?" style="rhombus;whiteSpace=wrap;html=1;" parent="WIyWlLk6GJQsqaUBKTNV-1" vertex="1">
          <mxGeometry x="-3560" y="820" width="170" height="90" as="geometry" />
        </mxCell>
        <mxCell id="gmQWbF-xbGZ5uaHnf1Lp-46" value="상태 유지" style="rounded=0;whiteSpace=wrap;html=1;" parent="WIyWlLk6GJQsqaUBKTNV-1" vertex="1">
          <mxGeometry x="-3350" y="835" width="120" height="60" as="geometry" />
        </mxCell>
        <mxCell id="gmQWbF-xbGZ5uaHnf1Lp-49" value="상호작용 상태 종료" style="rounded=1;whiteSpace=wrap;html=1;arcSize=50;" parent="WIyWlLk6GJQsqaUBKTNV-1" vertex="1">
          <mxGeometry x="-3540" y="950" width="130" height="62" as="geometry" />
        </mxCell>
        <mxCell id="gmQWbF-xbGZ5uaHnf1Lp-50" value="" style="ellipse;whiteSpace=wrap;html=1;aspect=fixed;" parent="WIyWlLk6GJQsqaUBKTNV-1" vertex="1">
          <mxGeometry x="-1280" y="540" width="80" height="80" as="geometry" />
        </mxCell>
        <mxCell id="gmQWbF-xbGZ5uaHnf1Lp-51" value="&lt;ul&gt;&lt;li&gt;상하로 움직이는 벽&lt;/li&gt;&lt;li&gt;좌우로 움직이는 바닥&lt;/li&gt;&lt;li&gt;도르레형식의 문&lt;/li&gt;&lt;/ul&gt;" style="text;strokeColor=none;fillColor=none;html=1;whiteSpace=wrap;verticalAlign=middle;overflow=hidden;" parent="WIyWlLk6GJQsqaUBKTNV-1" vertex="1">
          <mxGeometry x="-3300" y="730" width="300" height="80" as="geometry" />
        </mxCell>
        <mxCell id="FF1QrlmVF40zC5lhkL89-0" value="Player" style="swimlane;fontStyle=0;childLayout=stackLayout;horizontal=1;startSize=26;fillColor=none;horizontalStack=0;resizeParent=1;resizeParentMax=0;resizeLast=0;collapsible=1;marginBottom=0;whiteSpace=wrap;html=1;" vertex="1" parent="WIyWlLk6GJQsqaUBKTNV-1">
          <mxGeometry x="-680" y="280" width="140" height="104" as="geometry" />
        </mxCell>
        <mxCell id="FF1QrlmVF40zC5lhkL89-1" value="+ field: type" style="text;strokeColor=none;fillColor=none;align=left;verticalAlign=top;spacingLeft=4;spacingRight=4;overflow=hidden;rotatable=0;points=[[0,0.5],[1,0.5]];portConstraint=eastwest;whiteSpace=wrap;html=1;" vertex="1" parent="FF1QrlmVF40zC5lhkL89-0">
          <mxGeometry y="26" width="140" height="26" as="geometry" />
        </mxCell>
        <mxCell id="FF1QrlmVF40zC5lhkL89-2" value="+ field: type" style="text;strokeColor=none;fillColor=none;align=left;verticalAlign=top;spacingLeft=4;spacingRight=4;overflow=hidden;rotatable=0;points=[[0,0.5],[1,0.5]];portConstraint=eastwest;whiteSpace=wrap;html=1;" vertex="1" parent="FF1QrlmVF40zC5lhkL89-0">
          <mxGeometry y="52" width="140" height="26" as="geometry" />
        </mxCell>
        <mxCell id="FF1QrlmVF40zC5lhkL89-3" value="+ field: type" style="text;strokeColor=none;fillColor=none;align=left;verticalAlign=top;spacingLeft=4;spacingRight=4;overflow=hidden;rotatable=0;points=[[0,0.5],[1,0.5]];portConstraint=eastwest;whiteSpace=wrap;html=1;" vertex="1" parent="FF1QrlmVF40zC5lhkL89-0">
          <mxGeometry y="78" width="140" height="26" as="geometry" />
        </mxCell>
        <mxCell id="FF1QrlmVF40zC5lhkL89-4" value="PlayerController" style="swimlane;fontStyle=0;childLayout=stackLayout;horizontal=1;startSize=26;fillColor=none;horizontalStack=0;resizeParent=1;resizeParentMax=0;resizeLast=0;collapsible=1;marginBottom=0;whiteSpace=wrap;html=1;" vertex="1" parent="WIyWlLk6GJQsqaUBKTNV-1">
          <mxGeometry x="-330" y="70" width="140" height="104" as="geometry" />
        </mxCell>
        <mxCell id="FF1QrlmVF40zC5lhkL89-5" value="+ field: type" style="text;strokeColor=none;fillColor=none;align=left;verticalAlign=top;spacingLeft=4;spacingRight=4;overflow=hidden;rotatable=0;points=[[0,0.5],[1,0.5]];portConstraint=eastwest;whiteSpace=wrap;html=1;" vertex="1" parent="FF1QrlmVF40zC5lhkL89-4">
          <mxGeometry y="26" width="140" height="26" as="geometry" />
        </mxCell>
        <mxCell id="FF1QrlmVF40zC5lhkL89-6" value="+ field: type" style="text;strokeColor=none;fillColor=none;align=left;verticalAlign=top;spacingLeft=4;spacingRight=4;overflow=hidden;rotatable=0;points=[[0,0.5],[1,0.5]];portConstraint=eastwest;whiteSpace=wrap;html=1;" vertex="1" parent="FF1QrlmVF40zC5lhkL89-4">
          <mxGeometry y="52" width="140" height="26" as="geometry" />
        </mxCell>
        <mxCell id="FF1QrlmVF40zC5lhkL89-7" value="+ field: type" style="text;strokeColor=none;fillColor=none;align=left;verticalAlign=top;spacingLeft=4;spacingRight=4;overflow=hidden;rotatable=0;points=[[0,0.5],[1,0.5]];portConstraint=eastwest;whiteSpace=wrap;html=1;" vertex="1" parent="FF1QrlmVF40zC5lhkL89-4">
          <mxGeometry y="78" width="140" height="26" as="geometry" />
        </mxCell>
        <mxCell id="FF1QrlmVF40zC5lhkL89-12" value="PlayerStateMachine" style="swimlane;fontStyle=1;align=center;verticalAlign=top;childLayout=stackLayout;horizontal=1;startSize=26;horizontalStack=0;resizeParent=1;resizeParentMax=0;resizeLast=0;collapsible=1;marginBottom=0;whiteSpace=wrap;html=1;" vertex="1" parent="WIyWlLk6GJQsqaUBKTNV-1">
          <mxGeometry x="-340" y="340" width="160" height="86" as="geometry" />
        </mxCell>
        <mxCell id="FF1QrlmVF40zC5lhkL89-13" value="+ field: type" style="text;strokeColor=none;fillColor=none;align=left;verticalAlign=top;spacingLeft=4;spacingRight=4;overflow=hidden;rotatable=0;points=[[0,0.5],[1,0.5]];portConstraint=eastwest;whiteSpace=wrap;html=1;" vertex="1" parent="FF1QrlmVF40zC5lhkL89-12">
          <mxGeometry y="26" width="160" height="26" as="geometry" />
        </mxCell>
        <mxCell id="FF1QrlmVF40zC5lhkL89-14" value="" style="line;strokeWidth=1;fillColor=none;align=left;verticalAlign=middle;spacingTop=-1;spacingLeft=3;spacingRight=3;rotatable=0;labelPosition=right;points=[];portConstraint=eastwest;strokeColor=inherit;" vertex="1" parent="FF1QrlmVF40zC5lhkL89-12">
          <mxGeometry y="52" width="160" height="8" as="geometry" />
        </mxCell>
        <mxCell id="FF1QrlmVF40zC5lhkL89-15" value="+ method(type): type" style="text;strokeColor=none;fillColor=none;align=left;verticalAlign=top;spacingLeft=4;spacingRight=4;overflow=hidden;rotatable=0;points=[[0,0.5],[1,0.5]];portConstraint=eastwest;whiteSpace=wrap;html=1;" vertex="1" parent="FF1QrlmVF40zC5lhkL89-12">
          <mxGeometry y="60" width="160" height="26" as="geometry" />
        </mxCell>
        <mxCell id="FF1QrlmVF40zC5lhkL89-16" value="PlayerBaseState" style="swimlane;fontStyle=1;align=center;verticalAlign=top;childLayout=stackLayout;horizontal=1;startSize=26;horizontalStack=0;resizeParent=1;resizeParentMax=0;resizeLast=0;collapsible=1;marginBottom=0;whiteSpace=wrap;html=1;" vertex="1" parent="WIyWlLk6GJQsqaUBKTNV-1">
          <mxGeometry x="310" y="220" width="160" height="86" as="geometry" />
        </mxCell>
        <mxCell id="FF1QrlmVF40zC5lhkL89-17" value="+ field: type" style="text;strokeColor=none;fillColor=none;align=left;verticalAlign=top;spacingLeft=4;spacingRight=4;overflow=hidden;rotatable=0;points=[[0,0.5],[1,0.5]];portConstraint=eastwest;whiteSpace=wrap;html=1;" vertex="1" parent="FF1QrlmVF40zC5lhkL89-16">
          <mxGeometry y="26" width="160" height="26" as="geometry" />
        </mxCell>
        <mxCell id="FF1QrlmVF40zC5lhkL89-18" value="" style="line;strokeWidth=1;fillColor=none;align=left;verticalAlign=middle;spacingTop=-1;spacingLeft=3;spacingRight=3;rotatable=0;labelPosition=right;points=[];portConstraint=eastwest;strokeColor=inherit;" vertex="1" parent="FF1QrlmVF40zC5lhkL89-16">
          <mxGeometry y="52" width="160" height="8" as="geometry" />
        </mxCell>
        <mxCell id="FF1QrlmVF40zC5lhkL89-19" value="+ method(type): type" style="text;strokeColor=none;fillColor=none;align=left;verticalAlign=top;spacingLeft=4;spacingRight=4;overflow=hidden;rotatable=0;points=[[0,0.5],[1,0.5]];portConstraint=eastwest;whiteSpace=wrap;html=1;" vertex="1" parent="FF1QrlmVF40zC5lhkL89-16">
          <mxGeometry y="60" width="160" height="26" as="geometry" />
        </mxCell>
        <mxCell id="FF1QrlmVF40zC5lhkL89-40" value="" style="group" vertex="1" connectable="0" parent="WIyWlLk6GJQsqaUBKTNV-1">
          <mxGeometry x="-90" y="384" width="960" height="176" as="geometry" />
        </mxCell>
        <mxCell id="FF1QrlmVF40zC5lhkL89-20" value="PlayerIdleState" style="swimlane;fontStyle=1;align=center;verticalAlign=top;childLayout=stackLayout;horizontal=1;startSize=26;horizontalStack=0;resizeParent=1;resizeParentMax=0;resizeLast=0;collapsible=1;marginBottom=0;whiteSpace=wrap;html=1;" vertex="1" parent="FF1QrlmVF40zC5lhkL89-40">
          <mxGeometry width="160" height="190" as="geometry" />
        </mxCell>
        <mxCell id="FF1QrlmVF40zC5lhkL89-21" value="+ field: type" style="text;strokeColor=none;fillColor=none;align=left;verticalAlign=top;spacingLeft=4;spacingRight=4;overflow=hidden;rotatable=0;points=[[0,0.5],[1,0.5]];portConstraint=eastwest;whiteSpace=wrap;html=1;" vertex="1" parent="FF1QrlmVF40zC5lhkL89-20">
          <mxGeometry y="26" width="160" height="26" as="geometry" />
        </mxCell>
        <mxCell id="FF1QrlmVF40zC5lhkL89-22" value="" style="line;strokeWidth=1;fillColor=none;align=left;verticalAlign=middle;spacingTop=-1;spacingLeft=3;spacingRight=3;rotatable=0;labelPosition=right;points=[];portConstraint=eastwest;strokeColor=inherit;" vertex="1" parent="FF1QrlmVF40zC5lhkL89-20">
          <mxGeometry y="52" width="160" height="8" as="geometry" />
        </mxCell>
        <mxCell id="FF1QrlmVF40zC5lhkL89-58" value="+PlayerIdleState" style="text;strokeColor=none;fillColor=none;align=left;verticalAlign=top;spacingLeft=4;spacingRight=4;overflow=hidden;rotatable=0;points=[[0,0.5],[1,0.5]];portConstraint=eastwest;whiteSpace=wrap;html=1;" vertex="1" parent="FF1QrlmVF40zC5lhkL89-20">
          <mxGeometry y="60" width="160" height="26" as="geometry" />
        </mxCell>
        <mxCell id="FF1QrlmVF40zC5lhkL89-59" value="+OnEnterState" style="text;strokeColor=none;fillColor=none;align=left;verticalAlign=top;spacingLeft=4;spacingRight=4;overflow=hidden;rotatable=0;points=[[0,0.5],[1,0.5]];portConstraint=eastwest;whiteSpace=wrap;html=1;" vertex="1" parent="FF1QrlmVF40zC5lhkL89-20">
          <mxGeometry y="86" width="160" height="26" as="geometry" />
        </mxCell>
        <mxCell id="FF1QrlmVF40zC5lhkL89-60" value="+OnUpdateState" style="text;strokeColor=none;fillColor=none;align=left;verticalAlign=top;spacingLeft=4;spacingRight=4;overflow=hidden;rotatable=0;points=[[0,0.5],[1,0.5]];portConstraint=eastwest;whiteSpace=wrap;html=1;" vertex="1" parent="FF1QrlmVF40zC5lhkL89-20">
          <mxGeometry y="112" width="160" height="26" as="geometry" />
        </mxCell>
        <mxCell id="FF1QrlmVF40zC5lhkL89-61" value="+OnFixedUpdateState" style="text;strokeColor=none;fillColor=none;align=left;verticalAlign=top;spacingLeft=4;spacingRight=4;overflow=hidden;rotatable=0;points=[[0,0.5],[1,0.5]];portConstraint=eastwest;whiteSpace=wrap;html=1;" vertex="1" parent="FF1QrlmVF40zC5lhkL89-20">
          <mxGeometry y="138" width="160" height="26" as="geometry" />
        </mxCell>
        <mxCell id="FF1QrlmVF40zC5lhkL89-62" value="+OnExitState" style="text;strokeColor=none;fillColor=none;align=left;verticalAlign=top;spacingLeft=4;spacingRight=4;overflow=hidden;rotatable=0;points=[[0,0.5],[1,0.5]];portConstraint=eastwest;whiteSpace=wrap;html=1;" vertex="1" parent="FF1QrlmVF40zC5lhkL89-20">
          <mxGeometry y="164" width="160" height="26" as="geometry" />
        </mxCell>
        <mxCell id="FF1QrlmVF40zC5lhkL89-24" value="PlayerMoveState" style="swimlane;fontStyle=1;align=center;verticalAlign=top;childLayout=stackLayout;horizontal=1;startSize=26;horizontalStack=0;resizeParent=1;resizeParentMax=0;resizeLast=0;collapsible=1;marginBottom=0;whiteSpace=wrap;html=1;" vertex="1" parent="FF1QrlmVF40zC5lhkL89-40">
          <mxGeometry x="200" width="160" height="268" as="geometry" />
        </mxCell>
        <mxCell id="FF1QrlmVF40zC5lhkL89-25" value="+CONVERT_UNIT_VALUE" style="text;strokeColor=none;fillColor=none;align=left;verticalAlign=top;spacingLeft=4;spacingRight=4;overflow=hidden;rotatable=0;points=[[0,0.5],[1,0.5]];portConstraint=eastwest;whiteSpace=wrap;html=1;" vertex="1" parent="FF1QrlmVF40zC5lhkL89-24">
          <mxGeometry y="26" width="160" height="26" as="geometry" />
        </mxCell>
        <mxCell id="FF1QrlmVF40zC5lhkL89-46" value="+DEFAULT_CONVERT_MOVESPEED" style="text;strokeColor=none;fillColor=none;align=left;verticalAlign=top;spacingLeft=4;spacingRight=4;overflow=hidden;rotatable=0;points=[[0,0.5],[1,0.5]];portConstraint=eastwest;whiteSpace=wrap;html=1;" vertex="1" parent="FF1QrlmVF40zC5lhkL89-24">
          <mxGeometry y="52" width="160" height="26" as="geometry" />
        </mxCell>
        <mxCell id="FF1QrlmVF40zC5lhkL89-47" value="+DEFAULT_ANIMATION_PLAYSPEED" style="text;strokeColor=none;fillColor=none;align=left;verticalAlign=top;spacingLeft=4;spacingRight=4;overflow=hidden;rotatable=0;points=[[0,0.5],[1,0.5]];portConstraint=eastwest;whiteSpace=wrap;html=1;" vertex="1" parent="FF1QrlmVF40zC5lhkL89-24">
          <mxGeometry y="78" width="160" height="26" as="geometry" />
        </mxCell>
        <mxCell id="FF1QrlmVF40zC5lhkL89-48" value="-hashMoveAnimation" style="text;strokeColor=none;fillColor=none;align=left;verticalAlign=top;spacingLeft=4;spacingRight=4;overflow=hidden;rotatable=0;points=[[0,0.5],[1,0.5]];portConstraint=eastwest;whiteSpace=wrap;html=1;" vertex="1" parent="FF1QrlmVF40zC5lhkL89-24">
          <mxGeometry y="104" width="160" height="26" as="geometry" />
        </mxCell>
        <mxCell id="FF1QrlmVF40zC5lhkL89-26" value="" style="line;strokeWidth=1;fillColor=none;align=left;verticalAlign=middle;spacingTop=-1;spacingLeft=3;spacingRight=3;rotatable=0;labelPosition=right;points=[];portConstraint=eastwest;strokeColor=inherit;" vertex="1" parent="FF1QrlmVF40zC5lhkL89-24">
          <mxGeometry y="130" width="160" height="8" as="geometry" />
        </mxCell>
        <mxCell id="FF1QrlmVF40zC5lhkL89-27" value="+PlayerMoveState" style="text;strokeColor=none;fillColor=none;align=left;verticalAlign=top;spacingLeft=4;spacingRight=4;overflow=hidden;rotatable=0;points=[[0,0.5],[1,0.5]];portConstraint=eastwest;whiteSpace=wrap;html=1;" vertex="1" parent="FF1QrlmVF40zC5lhkL89-24">
          <mxGeometry y="138" width="160" height="26" as="geometry" />
        </mxCell>
        <mxCell id="FF1QrlmVF40zC5lhkL89-49" value="+OnEnterState" style="text;strokeColor=none;fillColor=none;align=left;verticalAlign=top;spacingLeft=4;spacingRight=4;overflow=hidden;rotatable=0;points=[[0,0.5],[1,0.5]];portConstraint=eastwest;whiteSpace=wrap;html=1;" vertex="1" parent="FF1QrlmVF40zC5lhkL89-24">
          <mxGeometry y="164" width="160" height="26" as="geometry" />
        </mxCell>
        <mxCell id="FF1QrlmVF40zC5lhkL89-50" value="+OnUpdateState" style="text;strokeColor=none;fillColor=none;align=left;verticalAlign=top;spacingLeft=4;spacingRight=4;overflow=hidden;rotatable=0;points=[[0,0.5],[1,0.5]];portConstraint=eastwest;whiteSpace=wrap;html=1;" vertex="1" parent="FF1QrlmVF40zC5lhkL89-24">
          <mxGeometry y="190" width="160" height="26" as="geometry" />
        </mxCell>
        <mxCell id="FF1QrlmVF40zC5lhkL89-52" value="+OnFixedUpdateState" style="text;strokeColor=none;fillColor=none;align=left;verticalAlign=top;spacingLeft=4;spacingRight=4;overflow=hidden;rotatable=0;points=[[0,0.5],[1,0.5]];portConstraint=eastwest;whiteSpace=wrap;html=1;" vertex="1" parent="FF1QrlmVF40zC5lhkL89-24">
          <mxGeometry y="216" width="160" height="26" as="geometry" />
        </mxCell>
        <mxCell id="FF1QrlmVF40zC5lhkL89-51" value="+OnExitState" style="text;strokeColor=none;fillColor=none;align=left;verticalAlign=top;spacingLeft=4;spacingRight=4;overflow=hidden;rotatable=0;points=[[0,0.5],[1,0.5]];portConstraint=eastwest;whiteSpace=wrap;html=1;" vertex="1" parent="FF1QrlmVF40zC5lhkL89-24">
          <mxGeometry y="242" width="160" height="26" as="geometry" />
        </mxCell>
        <mxCell id="FF1QrlmVF40zC5lhkL89-28" value="PlayerInteractiveState" style="swimlane;fontStyle=1;align=center;verticalAlign=top;childLayout=stackLayout;horizontal=1;startSize=26;horizontalStack=0;resizeParent=1;resizeParentMax=0;resizeLast=0;collapsible=1;marginBottom=0;whiteSpace=wrap;html=1;" vertex="1" parent="FF1QrlmVF40zC5lhkL89-40">
          <mxGeometry x="600" width="160" height="190" as="geometry" />
        </mxCell>
        <mxCell id="FF1QrlmVF40zC5lhkL89-29" value="+ field: type" style="text;strokeColor=none;fillColor=none;align=left;verticalAlign=top;spacingLeft=4;spacingRight=4;overflow=hidden;rotatable=0;points=[[0,0.5],[1,0.5]];portConstraint=eastwest;whiteSpace=wrap;html=1;" vertex="1" parent="FF1QrlmVF40zC5lhkL89-28">
          <mxGeometry y="26" width="160" height="26" as="geometry" />
        </mxCell>
        <mxCell id="FF1QrlmVF40zC5lhkL89-30" value="" style="line;strokeWidth=1;fillColor=none;align=left;verticalAlign=middle;spacingTop=-1;spacingLeft=3;spacingRight=3;rotatable=0;labelPosition=right;points=[];portConstraint=eastwest;strokeColor=inherit;" vertex="1" parent="FF1QrlmVF40zC5lhkL89-28">
          <mxGeometry y="52" width="160" height="8" as="geometry" />
        </mxCell>
        <mxCell id="FF1QrlmVF40zC5lhkL89-68" value="+PlayerInteractiveState" style="text;strokeColor=none;fillColor=none;align=left;verticalAlign=top;spacingLeft=4;spacingRight=4;overflow=hidden;rotatable=0;points=[[0,0.5],[1,0.5]];portConstraint=eastwest;whiteSpace=wrap;html=1;" vertex="1" parent="FF1QrlmVF40zC5lhkL89-28">
          <mxGeometry y="60" width="160" height="26" as="geometry" />
        </mxCell>
        <mxCell id="FF1QrlmVF40zC5lhkL89-69" value="+OnEnterState" style="text;strokeColor=none;fillColor=none;align=left;verticalAlign=top;spacingLeft=4;spacingRight=4;overflow=hidden;rotatable=0;points=[[0,0.5],[1,0.5]];portConstraint=eastwest;whiteSpace=wrap;html=1;" vertex="1" parent="FF1QrlmVF40zC5lhkL89-28">
          <mxGeometry y="86" width="160" height="26" as="geometry" />
        </mxCell>
        <mxCell id="FF1QrlmVF40zC5lhkL89-70" value="+OnUpdateState" style="text;strokeColor=none;fillColor=none;align=left;verticalAlign=top;spacingLeft=4;spacingRight=4;overflow=hidden;rotatable=0;points=[[0,0.5],[1,0.5]];portConstraint=eastwest;whiteSpace=wrap;html=1;" vertex="1" parent="FF1QrlmVF40zC5lhkL89-28">
          <mxGeometry y="112" width="160" height="26" as="geometry" />
        </mxCell>
        <mxCell id="FF1QrlmVF40zC5lhkL89-71" value="+OnFixedUpdateState" style="text;strokeColor=none;fillColor=none;align=left;verticalAlign=top;spacingLeft=4;spacingRight=4;overflow=hidden;rotatable=0;points=[[0,0.5],[1,0.5]];portConstraint=eastwest;whiteSpace=wrap;html=1;" vertex="1" parent="FF1QrlmVF40zC5lhkL89-28">
          <mxGeometry y="138" width="160" height="26" as="geometry" />
        </mxCell>
        <mxCell id="FF1QrlmVF40zC5lhkL89-72" value="+OnExitState" style="text;strokeColor=none;fillColor=none;align=left;verticalAlign=top;spacingLeft=4;spacingRight=4;overflow=hidden;rotatable=0;points=[[0,0.5],[1,0.5]];portConstraint=eastwest;whiteSpace=wrap;html=1;" vertex="1" parent="FF1QrlmVF40zC5lhkL89-28">
          <mxGeometry y="164" width="160" height="26" as="geometry" />
        </mxCell>
        <mxCell id="FF1QrlmVF40zC5lhkL89-32" value="PlayerJumpState" style="swimlane;fontStyle=1;align=center;verticalAlign=top;childLayout=stackLayout;horizontal=1;startSize=26;horizontalStack=0;resizeParent=1;resizeParentMax=0;resizeLast=0;collapsible=1;marginBottom=0;whiteSpace=wrap;html=1;" vertex="1" parent="FF1QrlmVF40zC5lhkL89-40">
          <mxGeometry x="400" width="160" height="190" as="geometry" />
        </mxCell>
        <mxCell id="FF1QrlmVF40zC5lhkL89-33" value="+ field: type" style="text;strokeColor=none;fillColor=none;align=left;verticalAlign=top;spacingLeft=4;spacingRight=4;overflow=hidden;rotatable=0;points=[[0,0.5],[1,0.5]];portConstraint=eastwest;whiteSpace=wrap;html=1;" vertex="1" parent="FF1QrlmVF40zC5lhkL89-32">
          <mxGeometry y="26" width="160" height="26" as="geometry" />
        </mxCell>
        <mxCell id="FF1QrlmVF40zC5lhkL89-34" value="" style="line;strokeWidth=1;fillColor=none;align=left;verticalAlign=middle;spacingTop=-1;spacingLeft=3;spacingRight=3;rotatable=0;labelPosition=right;points=[];portConstraint=eastwest;strokeColor=inherit;" vertex="1" parent="FF1QrlmVF40zC5lhkL89-32">
          <mxGeometry y="52" width="160" height="8" as="geometry" />
        </mxCell>
        <mxCell id="FF1QrlmVF40zC5lhkL89-63" value="+PlayerJumpState" style="text;strokeColor=none;fillColor=none;align=left;verticalAlign=top;spacingLeft=4;spacingRight=4;overflow=hidden;rotatable=0;points=[[0,0.5],[1,0.5]];portConstraint=eastwest;whiteSpace=wrap;html=1;" vertex="1" parent="FF1QrlmVF40zC5lhkL89-32">
          <mxGeometry y="60" width="160" height="26" as="geometry" />
        </mxCell>
        <mxCell id="FF1QrlmVF40zC5lhkL89-64" value="+OnEnterState" style="text;strokeColor=none;fillColor=none;align=left;verticalAlign=top;spacingLeft=4;spacingRight=4;overflow=hidden;rotatable=0;points=[[0,0.5],[1,0.5]];portConstraint=eastwest;whiteSpace=wrap;html=1;" vertex="1" parent="FF1QrlmVF40zC5lhkL89-32">
          <mxGeometry y="86" width="160" height="26" as="geometry" />
        </mxCell>
        <mxCell id="FF1QrlmVF40zC5lhkL89-65" value="+OnUpdateState" style="text;strokeColor=none;fillColor=none;align=left;verticalAlign=top;spacingLeft=4;spacingRight=4;overflow=hidden;rotatable=0;points=[[0,0.5],[1,0.5]];portConstraint=eastwest;whiteSpace=wrap;html=1;" vertex="1" parent="FF1QrlmVF40zC5lhkL89-32">
          <mxGeometry y="112" width="160" height="26" as="geometry" />
        </mxCell>
        <mxCell id="FF1QrlmVF40zC5lhkL89-66" value="+OnFixedUpdateState" style="text;strokeColor=none;fillColor=none;align=left;verticalAlign=top;spacingLeft=4;spacingRight=4;overflow=hidden;rotatable=0;points=[[0,0.5],[1,0.5]];portConstraint=eastwest;whiteSpace=wrap;html=1;" vertex="1" parent="FF1QrlmVF40zC5lhkL89-32">
          <mxGeometry y="138" width="160" height="26" as="geometry" />
        </mxCell>
        <mxCell id="FF1QrlmVF40zC5lhkL89-67" value="+OnExitState" style="text;strokeColor=none;fillColor=none;align=left;verticalAlign=top;spacingLeft=4;spacingRight=4;overflow=hidden;rotatable=0;points=[[0,0.5],[1,0.5]];portConstraint=eastwest;whiteSpace=wrap;html=1;" vertex="1" parent="FF1QrlmVF40zC5lhkL89-32">
          <mxGeometry y="164" width="160" height="26" as="geometry" />
        </mxCell>
        <mxCell id="FF1QrlmVF40zC5lhkL89-36" value="PlayerDamagedState" style="swimlane;fontStyle=1;align=center;verticalAlign=top;childLayout=stackLayout;horizontal=1;startSize=26;horizontalStack=0;resizeParent=1;resizeParentMax=0;resizeLast=0;collapsible=1;marginBottom=0;whiteSpace=wrap;html=1;" vertex="1" parent="FF1QrlmVF40zC5lhkL89-40">
          <mxGeometry x="800" width="160" height="190" as="geometry" />
        </mxCell>
        <mxCell id="FF1QrlmVF40zC5lhkL89-37" value="+ field: type" style="text;strokeColor=none;fillColor=none;align=left;verticalAlign=top;spacingLeft=4;spacingRight=4;overflow=hidden;rotatable=0;points=[[0,0.5],[1,0.5]];portConstraint=eastwest;whiteSpace=wrap;html=1;" vertex="1" parent="FF1QrlmVF40zC5lhkL89-36">
          <mxGeometry y="26" width="160" height="26" as="geometry" />
        </mxCell>
        <mxCell id="FF1QrlmVF40zC5lhkL89-38" value="" style="line;strokeWidth=1;fillColor=none;align=left;verticalAlign=middle;spacingTop=-1;spacingLeft=3;spacingRight=3;rotatable=0;labelPosition=right;points=[];portConstraint=eastwest;strokeColor=inherit;" vertex="1" parent="FF1QrlmVF40zC5lhkL89-36">
          <mxGeometry y="52" width="160" height="8" as="geometry" />
        </mxCell>
        <mxCell id="FF1QrlmVF40zC5lhkL89-73" value="+PlayerDamagedState" style="text;strokeColor=none;fillColor=none;align=left;verticalAlign=top;spacingLeft=4;spacingRight=4;overflow=hidden;rotatable=0;points=[[0,0.5],[1,0.5]];portConstraint=eastwest;whiteSpace=wrap;html=1;" vertex="1" parent="FF1QrlmVF40zC5lhkL89-36">
          <mxGeometry y="60" width="160" height="26" as="geometry" />
        </mxCell>
        <mxCell id="FF1QrlmVF40zC5lhkL89-74" value="+OnEnterState" style="text;strokeColor=none;fillColor=none;align=left;verticalAlign=top;spacingLeft=4;spacingRight=4;overflow=hidden;rotatable=0;points=[[0,0.5],[1,0.5]];portConstraint=eastwest;whiteSpace=wrap;html=1;" vertex="1" parent="FF1QrlmVF40zC5lhkL89-36">
          <mxGeometry y="86" width="160" height="26" as="geometry" />
        </mxCell>
        <mxCell id="FF1QrlmVF40zC5lhkL89-75" value="+OnUpdateState" style="text;strokeColor=none;fillColor=none;align=left;verticalAlign=top;spacingLeft=4;spacingRight=4;overflow=hidden;rotatable=0;points=[[0,0.5],[1,0.5]];portConstraint=eastwest;whiteSpace=wrap;html=1;" vertex="1" parent="FF1QrlmVF40zC5lhkL89-36">
          <mxGeometry y="112" width="160" height="26" as="geometry" />
        </mxCell>
        <mxCell id="FF1QrlmVF40zC5lhkL89-76" value="+OnFixedUpdateState" style="text;strokeColor=none;fillColor=none;align=left;verticalAlign=top;spacingLeft=4;spacingRight=4;overflow=hidden;rotatable=0;points=[[0,0.5],[1,0.5]];portConstraint=eastwest;whiteSpace=wrap;html=1;" vertex="1" parent="FF1QrlmVF40zC5lhkL89-36">
          <mxGeometry y="138" width="160" height="26" as="geometry" />
        </mxCell>
        <mxCell id="FF1QrlmVF40zC5lhkL89-77" value="+OnExitState" style="text;strokeColor=none;fillColor=none;align=left;verticalAlign=top;spacingLeft=4;spacingRight=4;overflow=hidden;rotatable=0;points=[[0,0.5],[1,0.5]];portConstraint=eastwest;whiteSpace=wrap;html=1;" vertex="1" parent="FF1QrlmVF40zC5lhkL89-36">
          <mxGeometry y="164" width="160" height="26" as="geometry" />
        </mxCell>
        <mxCell id="FF1QrlmVF40zC5lhkL89-41" style="edgeStyle=orthogonalEdgeStyle;rounded=0;orthogonalLoop=1;jettySize=auto;html=1;exitX=0.5;exitY=0;exitDx=0;exitDy=0;" edge="1" parent="WIyWlLk6GJQsqaUBKTNV-1" source="FF1QrlmVF40zC5lhkL89-20" target="FF1QrlmVF40zC5lhkL89-16">
          <mxGeometry relative="1" as="geometry" />
        </mxCell>
        <mxCell id="FF1QrlmVF40zC5lhkL89-42" style="edgeStyle=orthogonalEdgeStyle;rounded=0;orthogonalLoop=1;jettySize=auto;html=1;exitX=0.5;exitY=0;exitDx=0;exitDy=0;" edge="1" parent="WIyWlLk6GJQsqaUBKTNV-1" source="FF1QrlmVF40zC5lhkL89-24" target="FF1QrlmVF40zC5lhkL89-16">
          <mxGeometry relative="1" as="geometry" />
        </mxCell>
        <mxCell id="FF1QrlmVF40zC5lhkL89-43" style="edgeStyle=orthogonalEdgeStyle;rounded=0;orthogonalLoop=1;jettySize=auto;html=1;" edge="1" parent="WIyWlLk6GJQsqaUBKTNV-1" source="FF1QrlmVF40zC5lhkL89-32" target="FF1QrlmVF40zC5lhkL89-16">
          <mxGeometry relative="1" as="geometry" />
        </mxCell>
        <mxCell id="FF1QrlmVF40zC5lhkL89-44" style="edgeStyle=orthogonalEdgeStyle;rounded=0;orthogonalLoop=1;jettySize=auto;html=1;exitX=0.5;exitY=0;exitDx=0;exitDy=0;" edge="1" parent="WIyWlLk6GJQsqaUBKTNV-1" source="FF1QrlmVF40zC5lhkL89-28" target="FF1QrlmVF40zC5lhkL89-16">
          <mxGeometry relative="1" as="geometry" />
        </mxCell>
        <mxCell id="FF1QrlmVF40zC5lhkL89-45" style="edgeStyle=orthogonalEdgeStyle;rounded=0;orthogonalLoop=1;jettySize=auto;html=1;exitX=0.5;exitY=0;exitDx=0;exitDy=0;" edge="1" parent="WIyWlLk6GJQsqaUBKTNV-1" source="FF1QrlmVF40zC5lhkL89-36" target="FF1QrlmVF40zC5lhkL89-16">
          <mxGeometry relative="1" as="geometry" />
        </mxCell>
      </root>
    </mxGraphModel>
  </diagram>
</mxfile>
